<svg width="36" height="36" viewBox="0 0 36 36" fill="none" xmlns="http://www.w3.org/2000/svg">
<path d="M31.6355 10.4703C30.3605 9.06027 28.2305 8.35527 25.1405 8.35527H24.7805V8.29527C24.7805 5.77527 24.7805 2.65527 19.1405 2.65527H16.8605C11.2205 2.65527 11.2205 5.79027 11.2205 8.29527V8.37027H10.8605C7.75554 8.37027 5.64054 9.07527 4.36554 10.4853C2.88054 12.1353 2.92554 14.3553 3.07554 15.8703L3.09054 15.9753L3.20673 17.1952C3.22812 17.4199 3.34912 17.6228 3.53796 17.7464C3.89766 17.9818 4.49968 18.3698 4.86054 18.5703C5.07054 18.7053 5.29554 18.8253 5.52054 18.9453C8.08554 20.3553 10.9055 21.3003 13.7705 21.7653C13.9055 23.1753 14.5205 24.8253 17.8055 24.8253C21.0905 24.8253 21.7355 23.1903 21.8405 21.7353C24.9005 21.2403 27.8555 20.1753 30.5255 18.6153C30.6155 18.5703 30.6755 18.5253 30.7505 18.4803C31.3456 18.1439 31.963 17.7295 32.5257 17.3235C32.6953 17.2012 32.8037 17.0121 32.8268 16.8044L32.8505 16.5903L32.9255 15.8853C32.9405 15.7953 32.9405 15.7203 32.9555 15.6153C33.0755 14.1003 33.0455 12.0303 31.6355 10.4703ZM19.6355 20.7453C19.6355 22.3353 19.6355 22.5753 17.7905 22.5753C15.9455 22.5753 15.9455 22.2903 15.9455 20.7603V18.8703H19.6355V20.7453ZM13.3655 8.35527V8.29527C13.3655 5.74527 13.3655 4.80027 16.8605 4.80027H19.1405C22.6355 4.80027 22.6355 5.76027 22.6355 8.29527V8.37027H13.3655V8.35527Z" fill="#0E4B81"/>
<path d="M31.31 20.6013C31.8404 20.3489 32.4513 20.7694 32.3982 21.3543L31.8598 27.2851C31.5448 30.2851 30.3148 33.3451 23.7148 33.3451H12.2848C5.68476 33.3451 4.45477 30.2851 4.13977 27.3001L3.6287 21.6783C3.57614 21.1001 4.17307 20.6802 4.70202 20.9195C6.41115 21.6928 9.56586 23.0647 11.5146 23.5751C11.7611 23.6396 11.9604 23.816 12.0683 24.0468C12.9788 25.994 14.9534 27.0301 17.8048 27.0301C20.6279 27.0301 22.6275 25.9541 23.541 24.0021C23.649 23.7712 23.8486 23.5948 24.0952 23.5299C26.1645 22.9854 29.5224 21.4519 31.31 20.6013Z" fill="#0E4B81"/>
</svg>
