<svg width="158" height="36" viewBox="0 0 158 36" fill="none" xmlns="http://www.w3.org/2000/svg">
<path d="M57.3885 10.9335C59.5687 10.9335 61.5503 11.823 62.9858 13.2559C64.4213 14.6888 65.3124 16.6668 65.3124 18.8429C65.3124 21.0192 64.4213 22.9972 62.9858 24.4299C61.5503 25.8628 59.5687 26.7523 57.3885 26.7523H42.1124V10.9333L57.3885 10.9335ZM57.3885 13.4647H44.6482V24.2213H57.3885C58.869 24.2213 60.2159 23.6158 61.193 22.6404C62.1701 21.6653 62.7768 20.3206 62.7768 18.8429C62.7768 17.365 62.1701 16.0205 61.193 15.0454C60.2161 14.07 58.8692 13.4647 57.3885 13.4647ZM83.7578 10.9335C85.1032 10.9335 86.3257 11.482 87.2108 12.3658C88.0962 13.2495 88.6457 14.4699 88.6457 15.8129C88.6457 17.1559 88.0962 18.3764 87.2108 19.2599C86.3255 20.1436 85.103 20.6923 83.7578 20.6923H83.5567C85.6921 22.2928 87.2803 24.4316 88.5537 26.7525H85.6247C83.416 23.2366 81.017 20.6923 75.9965 20.6923H70.4499V26.7525H67.9139V10.9335H83.7578ZM83.7578 13.4647H70.4497V18.1611H83.7578C84.4033 18.1611 84.9914 17.8964 85.4183 17.4704C85.845 17.0443 86.1101 16.4575 86.1101 15.8129C86.1101 15.1683 85.845 14.5814 85.4183 14.1552C84.9914 13.7293 84.4033 13.4647 83.7578 13.4647ZM111.728 26.7525H91.1548V10.9335H111.728V13.4647H93.6906V17.5774H111.728V20.1086H93.6906V24.2213H111.728V26.7525ZM139.856 26.7525H137.32V10.9335H158V13.4647H139.856V17.5774H158V20.1086H139.856V26.7525ZM134.811 26.7525H114.237V10.9335H134.811V13.4647H116.773V17.5774H134.811V20.1086H116.773V24.2213H134.811V26.7525Z" fill="#168A3C"/>
<path d="M42.1124 35.143V32.1282H43.3421C43.6642 32.1282 43.9461 32.1928 44.1877 32.322C44.4322 32.4483 44.6221 32.6249 44.7573 32.8517C44.8925 33.0786 44.96 33.3399 44.96 33.6356C44.96 33.9313 44.8925 34.1926 44.7573 34.4194C44.6221 34.6462 44.4322 34.8242 44.1877 34.9535C43.9461 35.0798 43.6642 35.143 43.3421 35.143H42.1124ZM42.4317 34.8673H43.3248C43.5923 34.8673 43.8239 34.8156 44.0195 34.7123C44.2179 34.606 44.3718 34.461 44.4811 34.2773C44.5904 34.0907 44.6451 33.8768 44.6451 33.6356C44.6451 33.3915 44.5904 33.1776 44.4811 32.9939C44.3718 32.8101 44.2179 32.6666 44.0195 32.5632C43.8239 32.457 43.5923 32.4038 43.3248 32.4038H42.4317V34.8673Z" fill="#FCFEFF"/>
<path d="M45.6123 35.143V32.8819H45.9186V35.143H45.6123ZM45.7676 32.3823C45.7043 32.3823 45.6511 32.3608 45.608 32.3177C45.5648 32.2746 45.5433 32.223 45.5433 32.1627C45.5433 32.1024 45.5648 32.0521 45.608 32.0119C45.6511 31.9689 45.7043 31.9473 45.7676 31.9473C45.8309 31.9473 45.8841 31.9674 45.9273 32.0076C45.9704 32.0478 45.992 32.0981 45.992 32.1584C45.992 32.2215 45.9704 32.2746 45.9273 32.3177C45.887 32.3608 45.8338 32.3823 45.7676 32.3823Z" fill="#FCFEFF"/>
<path d="M47.3794 35.1645C47.1924 35.1645 47.0155 35.1386 46.8487 35.087C46.6819 35.0324 46.551 34.9649 46.4561 34.8845L46.5941 34.6434C46.6862 34.7123 46.8041 34.7726 46.9479 34.8243C47.0917 34.8731 47.2428 34.8975 47.401 34.8975C47.6167 34.8975 47.772 34.8644 47.8669 34.7984C47.9619 34.7295 48.0093 34.6391 48.0093 34.5271C48.0093 34.4438 47.982 34.3792 47.9274 34.3333C47.8756 34.2845 47.8065 34.2486 47.7203 34.2256C47.634 34.1998 47.5376 34.1782 47.4312 34.161C47.3247 34.1438 47.2183 34.1237 47.1119 34.1007C47.0083 34.0777 46.9134 34.0447 46.8271 34.0017C46.7408 33.9557 46.6703 33.894 46.6157 33.8165C46.5639 33.7389 46.538 33.6356 46.538 33.5064C46.538 33.3829 46.5726 33.2724 46.6416 33.1748C46.7106 33.0771 46.8113 33.0011 46.9436 32.9465C47.0788 32.8891 47.2428 32.8604 47.4355 32.8604C47.5822 32.8604 47.7289 32.8805 47.8756 32.9207C48.0223 32.958 48.1431 33.0082 48.238 33.0714L48.1043 33.3169C48.0036 33.248 47.8957 33.1992 47.7807 33.1705C47.6656 33.1389 47.5505 33.1231 47.4355 33.1231C47.2313 33.1231 47.0802 33.159 46.9824 33.2307C46.8875 33.2997 46.8401 33.3887 46.8401 33.4978C46.8401 33.5839 46.8659 33.6514 46.9177 33.7002C46.9724 33.749 47.0429 33.7878 47.1291 33.8165C47.2183 33.8423 47.3147 33.8638 47.4182 33.8811C47.5247 33.8983 47.6296 33.9198 47.7332 33.9457C47.8396 33.9686 47.936 34.0017 48.0223 34.0447C48.1114 34.0849 48.1819 34.1438 48.2337 34.2213C48.2883 34.296 48.3157 34.395 48.3157 34.5185C48.3157 34.6505 48.2783 34.7654 48.2035 34.863C48.1316 34.9578 48.0252 35.0324 47.8842 35.087C47.7461 35.1386 47.5779 35.1645 47.3794 35.1645Z" fill="#FCFEFF"/>
<path d="M49.594 35.1645C49.3812 35.1645 49.2172 35.1071 49.1022 34.9922C48.9871 34.8774 48.9296 34.7151 48.9296 34.5056V32.3823H49.2359V34.4883C49.2359 34.6204 49.269 34.7223 49.3351 34.7941C49.4042 34.8659 49.502 34.9018 49.6285 34.9018C49.7637 34.9018 49.8759 34.863 49.9651 34.7855L50.073 35.0051C50.0125 35.0597 49.9392 35.0999 49.8529 35.1257C49.7695 35.1516 49.6832 35.1645 49.594 35.1645ZM48.524 33.136V32.8819H49.9263V33.136H48.524Z" fill="#FCFEFF"/>
<path d="M50.6306 35.143V32.8819H50.924V33.4978L50.8938 33.3901C50.9571 33.2178 51.0635 33.0872 51.2131 32.9982C51.3627 32.9063 51.5482 32.8604 51.7697 32.8604V33.1575C51.7582 33.1575 51.7467 33.1575 51.7352 33.1575C51.7237 33.1547 51.7122 33.1532 51.7007 33.1532C51.4619 33.1532 51.2749 33.2264 51.1398 33.3729C51.0046 33.5164 50.937 33.7217 50.937 33.9887V35.143H50.6306Z" fill="#FCFEFF"/>
<path d="M52.3287 35.143V32.8819H52.635V35.143H52.3287ZM52.484 32.3823C52.4207 32.3823 52.3675 32.3608 52.3244 32.3177C52.2812 32.2746 52.2596 32.223 52.2596 32.1627C52.2596 32.1024 52.2812 32.0521 52.3244 32.0119C52.3675 31.9689 52.4207 31.9473 52.484 31.9473C52.5473 31.9473 52.6005 31.9674 52.6436 32.0076C52.6868 32.0478 52.7084 32.0981 52.7084 32.1584C52.7084 32.2215 52.6868 32.2746 52.6436 32.3177C52.6034 32.3608 52.5502 32.3823 52.484 32.3823Z" fill="#FCFEFF"/>
<path d="M54.6567 35.1645C54.4582 35.1645 54.2799 35.12 54.1217 35.031C53.9634 34.9391 53.8383 34.807 53.7463 34.6348C53.6542 34.4625 53.6082 34.2543 53.6082 34.0103C53.6082 33.7634 53.6542 33.5552 53.7463 33.3858C53.8412 33.2135 53.9678 33.0829 54.126 32.9939C54.2842 32.9049 54.4611 32.8604 54.6567 32.8604C54.8724 32.8604 55.0651 32.9092 55.2348 33.0068C55.4074 33.1015 55.5426 33.2351 55.6404 33.4073C55.7382 33.5796 55.7871 33.7806 55.7871 34.0103C55.7871 34.2371 55.7382 34.4381 55.6404 34.6132C55.5426 34.7855 55.4074 34.9204 55.2348 35.0181C55.0651 35.1157 54.8724 35.1645 54.6567 35.1645ZM53.4874 35.143V31.9473H53.7937V33.5494L53.7506 34.006L53.7808 34.4625V35.143H53.4874ZM54.6351 34.8932C54.7962 34.8932 54.94 34.8573 55.0666 34.7855C55.1931 34.7108 55.2938 34.6075 55.3686 34.4754C55.4434 34.3405 55.4808 34.1854 55.4808 34.0103C55.4808 33.8323 55.4434 33.6772 55.3686 33.5451C55.2938 33.4131 55.1931 33.3111 55.0666 33.2394C54.94 33.1647 54.7962 33.1274 54.6351 33.1274C54.474 33.1274 54.3288 33.1647 54.1993 33.2394C54.0728 33.3111 53.9721 33.4131 53.8973 33.5451C53.8254 33.6772 53.7894 33.8323 53.7894 34.0103C53.7894 34.1854 53.8254 34.3405 53.8973 34.4754C53.9721 34.6075 54.0728 34.7108 54.1993 34.7855C54.3288 34.8573 54.474 34.8932 54.6351 34.8932Z" fill="#FCFEFF"/>
<path d="M57.3479 35.1645C57.1551 35.1645 56.9869 35.1286 56.843 35.0568C56.6992 34.985 56.587 34.8774 56.5065 34.7338C56.4288 34.5902 56.39 34.4108 56.39 34.1955V32.8819H56.6964V34.161C56.6964 34.4022 56.7553 34.5845 56.8733 34.708C56.9941 34.8286 57.1623 34.8889 57.3781 34.8889C57.5363 34.8889 57.6729 34.8573 57.788 34.7941C57.9059 34.7281 57.9951 34.6333 58.0555 34.5099C58.1188 34.3864 58.1504 34.2385 58.1504 34.0663V32.8819H58.4567V35.143H58.1633V34.5228L58.2108 34.6348C58.1389 34.8013 58.0267 34.9319 57.8743 35.0267C57.7247 35.1185 57.5492 35.1645 57.3479 35.1645Z" fill="#FCFEFF"/>
<path d="M60.0267 35.1645C59.8139 35.1645 59.6499 35.1071 59.5349 34.9922C59.4198 34.8774 59.3623 34.7151 59.3623 34.5056V32.3823H59.6686V34.4883C59.6686 34.6204 59.7017 34.7223 59.7678 34.7941C59.8369 34.8659 59.9347 34.9018 60.0613 34.9018C60.1964 34.9018 60.3086 34.863 60.3978 34.7855L60.5057 35.0051C60.4453 35.0597 60.3719 35.0999 60.2856 35.1257C60.2022 35.1516 60.1159 35.1645 60.0267 35.1645ZM58.9567 33.136V32.8819H60.359V33.136H58.9567Z" fill="#FCFEFF"/>
<path d="M61.9454 35.1645C61.7096 35.1645 61.5025 35.1157 61.3241 35.0181C61.1458 34.9176 61.0063 34.7812 60.9056 34.6089C60.8049 34.4338 60.7546 34.2342 60.7546 34.0103C60.7546 33.7863 60.8021 33.5882 60.897 33.4159C60.9948 33.2437 61.1271 33.1087 61.2939 33.0111C61.4636 32.9106 61.6535 32.8604 61.8635 32.8604C62.0763 32.8604 62.2647 32.9092 62.4287 33.0068C62.5955 33.1015 62.7264 33.2365 62.8213 33.4116C62.9162 33.5839 62.9637 33.7835 62.9637 34.0103C62.9637 34.0246 62.9623 34.0404 62.9594 34.0576C62.9594 34.072 62.9594 34.0878 62.9594 34.105H60.9876V33.8768H62.7954L62.6746 33.9672C62.6746 33.8035 62.6387 33.6586 62.5667 33.5322C62.4977 33.403 62.4028 33.3025 62.282 33.2307C62.1612 33.159 62.0217 33.1231 61.8635 33.1231C61.7081 33.1231 61.5686 33.159 61.4449 33.2307C61.3213 33.3025 61.2249 33.403 61.1559 33.5322C61.0868 33.6614 61.0523 33.8093 61.0523 33.9758V34.0232C61.0523 34.1955 61.0897 34.3476 61.1645 34.4797C61.2421 34.6089 61.3486 34.7108 61.4838 34.7855C61.6218 34.8573 61.7786 34.8932 61.9541 34.8932C62.0921 34.8932 62.2201 34.8688 62.3381 34.8199C62.4589 34.7711 62.5624 34.6965 62.6487 34.596L62.8213 34.7941C62.7206 34.9147 62.5941 35.0066 62.4416 35.0697C62.292 35.1329 62.1267 35.1645 61.9454 35.1645Z" fill="#FCFEFF"/>
<path d="M64.489 35.1645C64.2733 35.1645 64.0791 35.1157 63.9065 35.0181C63.7368 34.9204 63.6031 34.7855 63.5053 34.6132C63.4075 34.4381 63.3586 34.2371 63.3586 34.0103C63.3586 33.7806 63.4075 33.5796 63.5053 33.4073C63.6031 33.2351 63.7368 33.1015 63.9065 33.0068C64.0791 32.9092 64.2733 32.8604 64.489 32.8604C64.6875 32.8604 64.8644 32.9049 65.0197 32.9939C65.1779 33.0829 65.303 33.2135 65.3951 33.3858C65.49 33.5552 65.5375 33.7634 65.5375 34.0103C65.5375 34.2543 65.4914 34.4625 65.3994 34.6348C65.3073 34.807 65.1822 34.9391 65.024 35.031C64.8687 35.12 64.6904 35.1645 64.489 35.1645ZM64.5106 34.8932C64.6716 34.8932 64.8155 34.8573 64.942 34.7855C65.0715 34.7108 65.1721 34.6075 65.2441 34.4754C65.3189 34.3405 65.3562 34.1854 65.3562 34.0103C65.3562 33.8323 65.3189 33.6772 65.2441 33.5451C65.1721 33.4131 65.0715 33.3111 64.942 33.2394C64.8155 33.1647 64.6716 33.1274 64.5106 33.1274C64.3524 33.1274 64.21 33.1647 64.0834 33.2394C63.9569 33.3111 63.8562 33.4131 63.7814 33.5451C63.7066 33.6772 63.6692 33.8323 63.6692 34.0103C63.6692 34.1854 63.7066 34.3405 63.7814 34.4754C63.8562 34.6075 63.9569 34.7108 64.0834 34.7855C64.21 34.8573 64.3524 34.8932 64.5106 34.8932ZM65.3649 35.143V34.4625L65.3951 34.006L65.3519 33.5494V31.9473H65.6583V35.143H65.3649Z" fill="#FCFEFF"/>
<path d="M67.7054 35.143V32.1282H68.8358C69.0918 32.1282 69.3119 32.1698 69.4959 32.2531C69.68 32.3335 69.821 32.4512 69.9188 32.6063C70.0195 32.7584 70.0698 32.9436 70.0698 33.1618C70.0698 33.3743 70.0195 33.5581 69.9188 33.7131C69.821 33.8653 69.68 33.983 69.4959 34.0663C69.3119 34.1467 69.0918 34.1868 68.8358 34.1868H67.8823L68.0247 34.0404V35.143H67.7054ZM69.7678 35.143L68.9911 34.049H69.3363L70.1173 35.143H69.7678ZM68.0247 34.0663L67.8823 33.9155H68.8272C69.1292 33.9155 69.3579 33.8495 69.5132 33.7174C69.6714 33.5853 69.7505 33.4001 69.7505 33.1618C69.7505 32.9207 69.6714 32.734 69.5132 32.602C69.3579 32.4699 69.1292 32.4038 68.8272 32.4038H67.8823L68.0247 32.2531V34.0663Z" fill="#FCFEFF"/>
<path d="M71.7208 35.1645C71.485 35.1645 71.2779 35.1157 71.0995 35.0181C70.9212 34.9176 70.7817 34.7812 70.681 34.6089C70.5803 34.4338 70.53 34.2342 70.53 34.0103C70.53 33.7863 70.5775 33.5882 70.6724 33.4159C70.7702 33.2437 70.9025 33.1087 71.0693 33.0111C71.239 32.9106 71.4289 32.8604 71.6389 32.8604C71.8517 32.8604 72.0401 32.9092 72.2041 33.0068C72.3709 33.1015 72.5018 33.2365 72.5967 33.4116C72.6916 33.5839 72.7391 33.7835 72.7391 34.0103C72.7391 34.0246 72.7377 34.0404 72.7348 34.0576C72.7348 34.072 72.7348 34.0878 72.7348 34.105H70.763V33.8768H72.5708L72.45 33.9672C72.45 33.8035 72.4141 33.6586 72.3421 33.5322C72.2731 33.403 72.1782 33.3025 72.0574 33.2307C71.9366 33.159 71.7971 33.1231 71.6389 33.1231C71.4835 33.1231 71.344 33.159 71.2203 33.2307C71.0966 33.3025 71.0003 33.403 70.9313 33.5322C70.8622 33.6614 70.8277 33.8093 70.8277 33.9758V34.0232C70.8277 34.1955 70.8651 34.3476 70.9399 34.4797C71.0175 34.6089 71.124 34.7108 71.2592 34.7855C71.3972 34.8573 71.554 34.8932 71.7295 34.8932C71.8675 34.8932 71.9955 34.8688 72.1135 34.8199C72.2343 34.7711 72.3378 34.6965 72.4241 34.596L72.5967 34.7941C72.496 34.9147 72.3695 35.0066 72.217 35.0697C72.0674 35.1329 71.902 35.1645 71.7208 35.1645Z" fill="#FCFEFF"/>
<path d="M74.519 32.8604C74.703 32.8604 74.8641 32.8963 75.0022 32.968C75.1431 33.0369 75.2524 33.1432 75.3301 33.2867C75.4107 33.4303 75.4509 33.6112 75.4509 33.8294V35.143H75.1446V33.8595C75.1446 33.6212 75.0842 33.4418 74.9634 33.3212C74.8454 33.1977 74.6786 33.136 74.4629 33.136C74.3018 33.136 74.1608 33.169 74.04 33.2351C73.9221 33.2982 73.83 33.3915 73.7639 33.515C73.7006 33.6356 73.669 33.782 73.669 33.9543V35.143H73.3626V32.8819H73.656V33.5021L73.6086 33.3858C73.6805 33.2221 73.7955 33.0944 73.9537 33.0025C74.1119 32.9077 74.3004 32.8604 74.519 32.8604Z" fill="#FCFEFF"/>
<path d="M77.2406 35.1645C77.0047 35.1645 76.7976 35.1157 76.6193 35.0181C76.4409 34.9176 76.3014 34.7812 76.2007 34.6089C76.1001 34.4338 76.0497 34.2342 76.0497 34.0103C76.0497 33.7863 76.0972 33.5882 76.1921 33.4159C76.2899 33.2437 76.4222 33.1087 76.5891 33.0111C76.7588 32.9106 76.9486 32.8604 77.1586 32.8604C77.3714 32.8604 77.5598 32.9092 77.7238 33.0068C77.8906 33.1015 78.0215 33.2365 78.1164 33.4116C78.2114 33.5839 78.2588 33.7835 78.2588 34.0103C78.2588 34.0246 78.2574 34.0404 78.2545 34.0576C78.2545 34.072 78.2545 34.0878 78.2545 34.105H76.2827V33.8768H78.0906L77.9697 33.9672C77.9697 33.8035 77.9338 33.6586 77.8619 33.5322C77.7928 33.403 77.6979 33.3025 77.5771 33.2307C77.4563 33.159 77.3168 33.1231 77.1586 33.1231C77.0033 33.1231 76.8638 33.159 76.7401 33.2307C76.6164 33.3025 76.52 33.403 76.451 33.5322C76.3819 33.6614 76.3474 33.8093 76.3474 33.9758V34.0232C76.3474 34.1955 76.3848 34.3476 76.4596 34.4797C76.5373 34.6089 76.6437 34.7108 76.7789 34.7855C76.917 34.8573 77.0737 34.8932 77.2492 34.8932C77.3873 34.8932 77.5153 34.8688 77.6332 34.8199C77.754 34.7711 77.8576 34.6965 77.9439 34.596L78.1164 34.7941C78.0158 34.9147 77.8892 35.0066 77.7367 35.0697C77.5872 35.1329 77.4218 35.1645 77.2406 35.1645Z" fill="#FCFEFF"/>
<path d="M79.3019 35.143L78.4476 32.8819H78.741L79.5176 34.9793H79.3839L80.1821 32.8819H80.4453L81.2349 34.9793H81.1011L81.8907 32.8819H82.1711L81.3125 35.143H81.0234L80.2641 33.1705H80.3547L79.591 35.143H79.3019Z" fill="#FCFEFF"/>
<path d="M83.9845 35.143V34.6434L83.9716 34.5615V33.726C83.9716 33.5337 83.9169 33.3858 83.8076 33.2824C83.7012 33.1791 83.5415 33.1274 83.3287 33.1274C83.182 33.1274 83.0425 33.1518 82.9102 33.2006C82.7778 33.2494 82.6657 33.314 82.5736 33.3944L82.4355 33.1661C82.5506 33.0685 82.6887 32.9939 82.8498 32.9422C83.0108 32.8876 83.1805 32.8604 83.3589 32.8604C83.6523 32.8604 83.8781 32.9336 84.0363 33.08C84.1974 33.2236 84.2779 33.4432 84.2779 33.7389V35.143H83.9845ZM83.2036 35.1645C83.0338 35.1645 82.8857 35.1372 82.7591 35.0827C82.6355 35.0252 82.5405 34.9477 82.4744 34.8501C82.4082 34.7496 82.3751 34.6348 82.3751 34.5056C82.3751 34.3878 82.4025 34.2816 82.4571 34.1868C82.5146 34.0892 82.6067 34.0117 82.7333 33.9543C82.8627 33.894 83.0353 33.8638 83.251 33.8638H84.032V34.0921H83.2596C83.041 34.0921 82.8886 34.1309 82.8023 34.2084C82.7189 34.2859 82.6772 34.3821 82.6772 34.4969C82.6772 34.6261 82.7275 34.7295 82.8282 34.807C82.9289 34.8845 83.0698 34.9233 83.251 34.9233C83.4236 34.9233 83.5717 34.8845 83.6954 34.807C83.822 34.7266 83.914 34.6118 83.9716 34.4625L84.0406 34.6735C83.9831 34.8228 83.8824 34.942 83.7386 35.031C83.5976 35.12 83.4193 35.1645 83.2036 35.1645Z" fill="#FCFEFF"/>
<path d="M86.2792 35.1645C86.0808 35.1645 85.9024 35.12 85.7442 35.031C85.586 34.9391 85.4609 34.807 85.3688 34.6348C85.2768 34.4625 85.2308 34.2543 85.2308 34.0103C85.2308 33.7634 85.2768 33.5552 85.3688 33.3858C85.4638 33.2135 85.5903 33.0829 85.7485 32.9939C85.9067 32.9049 86.0836 32.8604 86.2792 32.8604C86.495 32.8604 86.6877 32.9092 86.8574 33.0068C87.03 33.1015 87.1652 33.2351 87.263 33.4073C87.3608 33.5796 87.4097 33.7806 87.4097 34.0103C87.4097 34.2371 87.3608 34.4381 87.263 34.6132C87.1652 34.7855 87.03 34.9204 86.8574 35.0181C86.6877 35.1157 86.495 35.1645 86.2792 35.1645ZM85.11 35.143V31.9473H85.4163V33.5494L85.3732 34.006L85.4034 34.4625V35.143H85.11ZM86.2577 34.8932C86.4187 34.8932 86.5626 34.8573 86.6891 34.7855C86.8157 34.7108 86.9164 34.6075 86.9911 34.4754C87.0659 34.3405 87.1033 34.1854 87.1033 34.0103C87.1033 33.8323 87.0659 33.6772 86.9911 33.5451C86.9164 33.4131 86.8157 33.3111 86.6891 33.2394C86.5626 33.1647 86.4187 33.1274 86.2577 33.1274C86.0966 33.1274 85.9513 33.1647 85.8219 33.2394C85.6953 33.3111 85.5946 33.4131 85.5199 33.5451C85.4479 33.6772 85.412 33.8323 85.412 34.0103C85.412 34.1854 85.4479 34.3405 85.5199 34.4754C85.5946 34.6075 85.6953 34.7108 85.8219 34.7855C85.9513 34.8573 86.0966 34.8932 86.2577 34.8932Z" fill="#FCFEFF"/>
<path d="M88.0341 35.143V31.9473H88.3405V35.143H88.0341Z" fill="#FCFEFF"/>
<path d="M90.155 35.1645C89.9192 35.1645 89.7121 35.1157 89.5337 35.0181C89.3554 34.9176 89.2159 34.7812 89.1152 34.6089C89.0145 34.4338 88.9642 34.2342 88.9642 34.0103C88.9642 33.7863 89.0117 33.5882 89.1066 33.4159C89.2044 33.2437 89.3367 33.1087 89.5035 33.0111C89.6732 32.9106 89.8631 32.8604 90.0731 32.8604C90.2859 32.8604 90.4743 32.9092 90.6383 33.0068C90.8051 33.1015 90.936 33.2365 91.0309 33.4116C91.1258 33.5839 91.1733 33.7835 91.1733 34.0103C91.1733 34.0246 91.1719 34.0404 91.169 34.0576C91.169 34.072 91.169 34.0878 91.169 34.105H89.1972V33.8768H91.005L90.8842 33.9672C90.8842 33.8035 90.8483 33.6586 90.7764 33.5322C90.7073 33.403 90.6124 33.3025 90.4916 33.2307C90.3708 33.159 90.2313 33.1231 90.0731 33.1231C89.9177 33.1231 89.7782 33.159 89.6545 33.2307C89.5309 33.3025 89.4345 33.403 89.3655 33.5322C89.2964 33.6614 89.2619 33.8093 89.2619 33.9758V34.0232C89.2619 34.1955 89.2993 34.3476 89.3741 34.4797C89.4518 34.6089 89.5582 34.7108 89.6934 34.7855C89.8314 34.8573 89.9882 34.8932 90.1637 34.8932C90.3017 34.8932 90.4297 34.8688 90.5477 34.8199C90.6685 34.7711 90.772 34.6965 90.8583 34.596L91.0309 34.7941C90.9302 34.9147 90.8037 35.0066 90.6512 35.0697C90.5017 35.1329 90.3363 35.1645 90.155 35.1645Z" fill="#FCFEFF"/>
<path d="M93.2755 33.4762H94.872V33.7476H93.2755V33.4762ZM93.3101 34.8673H95.1265V35.143H92.9908V32.1282H95.0618V32.4038H93.3101V34.8673Z" fill="#FCFEFF"/>
<path d="M96.9687 32.8604C97.1527 32.8604 97.3138 32.8963 97.4519 32.968C97.5928 33.0369 97.7021 33.1432 97.7798 33.2867C97.8603 33.4303 97.9006 33.6112 97.9006 33.8294V35.143H97.5943V33.8595C97.5943 33.6212 97.5339 33.4418 97.4131 33.3212C97.2951 33.1977 97.1283 33.136 96.9126 33.136C96.7515 33.136 96.6105 33.169 96.4897 33.2351C96.3718 33.2982 96.2797 33.3915 96.2136 33.515C96.1503 33.6356 96.1187 33.782 96.1187 33.9543V35.143H95.8123V32.8819H96.1057V33.5021L96.0583 33.3858C96.1302 33.2221 96.2452 33.0944 96.4034 33.0025C96.5616 32.9077 96.7501 32.8604 96.9687 32.8604Z" fill="#FCFEFF"/>
<path d="M99.6903 35.1645C99.4544 35.1645 99.2473 35.1157 99.0689 35.0181C98.8906 34.9176 98.7511 34.7812 98.6504 34.6089C98.5498 34.4338 98.4994 34.2342 98.4994 34.0103C98.4994 33.7863 98.5469 33.5882 98.6418 33.4159C98.7396 33.2437 98.8719 33.1087 99.0387 33.0111C99.2085 32.9106 99.3983 32.8604 99.6083 32.8604C99.8211 32.8604 100.01 32.9092 100.174 33.0068C100.34 33.1015 100.471 33.2365 100.566 33.4116C100.661 33.5839 100.709 33.7835 100.709 34.0103C100.709 34.0246 100.707 34.0404 100.704 34.0576C100.704 34.072 100.704 34.0878 100.704 34.105H98.7324V33.8768H100.54L100.419 33.9672C100.419 33.8035 100.383 33.6586 100.312 33.5322C100.243 33.403 100.148 33.3025 100.027 33.2307C99.906 33.159 99.7665 33.1231 99.6083 33.1231C99.453 33.1231 99.3134 33.159 99.1898 33.2307C99.0661 33.3025 98.9697 33.403 98.9007 33.5322C98.8316 33.6614 98.7971 33.8093 98.7971 33.9758V34.0232C98.7971 34.1955 98.8345 34.3476 98.9093 34.4797C98.987 34.6089 99.0934 34.7108 99.2286 34.7855C99.3667 34.8573 99.5234 34.8932 99.6989 34.8932C99.837 34.8932 99.965 34.8688 100.083 34.8199C100.204 34.7711 100.307 34.6965 100.394 34.596L100.566 34.7941C100.465 34.9147 100.339 35.0066 100.186 35.0697C100.037 35.1329 99.8715 35.1645 99.6903 35.1645Z" fill="#FCFEFF"/>
<path d="M101.332 35.143V32.8819H101.625V33.4978L101.595 33.3901C101.659 33.2178 101.765 33.0872 101.915 32.9982C102.064 32.9063 102.25 32.8604 102.471 32.8604V33.1575C102.46 33.1575 102.448 33.1575 102.437 33.1575C102.425 33.1547 102.414 33.1532 102.402 33.1532C102.163 33.1532 101.976 33.2264 101.841 33.3729C101.706 33.5164 101.638 33.7217 101.638 33.9887V35.143H101.332Z" fill="#FCFEFF"/>
<path d="M103.976 36C103.768 36 103.57 35.9699 103.38 35.9096C103.19 35.8493 103.036 35.7631 102.918 35.6511L103.074 35.4186C103.18 35.5133 103.311 35.588 103.466 35.6425C103.625 35.7 103.791 35.7287 103.967 35.7287C104.255 35.7287 104.466 35.6612 104.601 35.5263C104.736 35.3942 104.804 35.1875 104.804 34.9061V34.3419L104.847 33.9543L104.817 33.5667V32.8819H105.11V34.8673C105.11 35.2578 105.014 35.5435 104.821 35.7244C104.631 35.9081 104.349 36 103.976 36ZM103.919 35.0568C103.704 35.0568 103.51 35.0109 103.337 34.919C103.164 34.8242 103.028 34.6936 102.927 34.5271C102.829 34.3606 102.78 34.1696 102.78 33.9543C102.78 33.7389 102.829 33.5494 102.927 33.3858C103.028 33.2193 103.164 33.0901 103.337 32.9982C103.51 32.9063 103.704 32.8604 103.919 32.8604C104.121 32.8604 104.302 32.902 104.463 32.9853C104.624 33.0685 104.752 33.192 104.847 33.3556C104.942 33.5193 104.989 33.7188 104.989 33.9543C104.989 34.1897 104.942 34.3893 104.847 34.5529C104.752 34.7166 104.624 34.8415 104.463 34.9276C104.302 35.0137 104.121 35.0568 103.919 35.0568ZM103.95 34.7855C104.116 34.7855 104.265 34.751 104.394 34.6821C104.523 34.6103 104.626 34.5127 104.7 34.3893C104.775 34.2629 104.813 34.1179 104.813 33.9543C104.813 33.7906 104.775 33.6471 104.7 33.5236C104.626 33.4002 104.523 33.304 104.394 33.2351C104.265 33.1633 104.116 33.1274 103.95 33.1274C103.786 33.1274 103.638 33.1633 103.505 33.2351C103.376 33.304 103.274 33.4002 103.199 33.5236C103.127 33.6471 103.091 33.7906 103.091 33.9543C103.091 34.1179 103.127 34.2629 103.199 34.3893C103.274 34.5127 103.376 34.6103 103.505 34.6821C103.638 34.751 103.786 34.7855 103.95 34.7855Z" fill="#FCFEFF"/>
<path d="M105.98 36C105.874 36 105.771 35.9828 105.674 35.9483C105.579 35.9139 105.497 35.8622 105.428 35.7933L105.57 35.565C105.628 35.6196 105.689 35.6612 105.756 35.6899C105.825 35.7215 105.901 35.7373 105.984 35.7373C106.085 35.7373 106.171 35.7086 106.243 35.6511C106.318 35.5966 106.388 35.499 106.455 35.3583L106.601 35.0267L106.636 34.9793L107.568 32.8819H107.87L106.735 35.4143C106.672 35.5607 106.601 35.677 106.524 35.7631C106.449 35.8493 106.367 35.9096 106.278 35.944C106.189 35.9813 106.089 36 105.98 36ZM106.584 35.2076L105.54 32.8819H105.859L106.783 34.9578L106.584 35.2076Z" fill="#FCFEFF"/>
<path d="M109.78 33.4762H111.376V33.7476H109.78V33.4762ZM109.814 34.8673H111.631V35.143H109.495V32.1282H111.566V32.4038H109.814V34.8673Z" fill="#FCFEFF"/>
<path d="M113.473 32.8604C113.657 32.8604 113.818 32.8963 113.956 32.968C114.097 33.0369 114.207 33.1432 114.284 33.2867C114.365 33.4303 114.405 33.6112 114.405 33.8294V35.143H114.099V33.8595C114.099 33.6212 114.038 33.4418 113.917 33.3212C113.8 33.1977 113.633 33.136 113.417 33.136C113.256 33.136 113.115 33.169 112.994 33.2351C112.876 33.2982 112.784 33.3915 112.718 33.515C112.655 33.6356 112.623 33.782 112.623 33.9543V35.143H112.317V32.8819H112.61V33.5021L112.563 33.3858C112.635 33.2221 112.75 33.0944 112.908 33.0025C113.066 32.9077 113.254 32.8604 113.473 32.8604Z" fill="#FCFEFF"/>
<path d="M116.389 32.8604C116.573 32.8604 116.734 32.8963 116.872 32.968C117.013 33.0369 117.122 33.1432 117.2 33.2867C117.281 33.4303 117.321 33.6112 117.321 33.8294V35.143H117.014V33.8595C117.014 33.6212 116.954 33.4418 116.833 33.3212C116.715 33.1977 116.548 33.136 116.333 33.136C116.172 33.136 116.031 33.169 115.91 33.2351C115.792 33.2982 115.7 33.3915 115.634 33.515C115.57 33.6356 115.539 33.782 115.539 33.9543V35.143H115.233V31.9473H115.539V33.5021L115.478 33.3858C115.55 33.2221 115.665 33.0944 115.824 33.0025C115.982 32.9077 116.17 32.8604 116.389 32.8604Z" fill="#FCFEFF"/>
<path d="M119.568 35.143V34.6434L119.555 34.5615V33.726C119.555 33.5337 119.5 33.3858 119.391 33.2824C119.284 33.1791 119.125 33.1274 118.912 33.1274C118.765 33.1274 118.626 33.1518 118.493 33.2006C118.361 33.2494 118.249 33.314 118.157 33.3944L118.019 33.1661C118.134 33.0685 118.272 32.9939 118.433 32.9422C118.594 32.8876 118.764 32.8604 118.942 32.8604C119.236 32.8604 119.461 32.9336 119.62 33.08C119.781 33.2236 119.861 33.4432 119.861 33.7389V35.143H119.568ZM118.787 35.1645C118.617 35.1645 118.469 35.1372 118.342 35.0827C118.219 35.0252 118.124 34.9477 118.058 34.8501C117.992 34.7496 117.958 34.6348 117.958 34.5056C117.958 34.3878 117.986 34.2816 118.04 34.1868C118.098 34.0892 118.19 34.0117 118.317 33.9543C118.446 33.894 118.619 33.8638 118.834 33.8638H119.615V34.0921H118.843C118.624 34.0921 118.472 34.1309 118.386 34.2084C118.302 34.2859 118.26 34.3821 118.26 34.4969C118.26 34.6261 118.311 34.7295 118.411 34.807C118.512 34.8845 118.653 34.9233 118.834 34.9233C119.007 34.9233 119.155 34.8845 119.279 34.807C119.405 34.7266 119.497 34.6118 119.555 34.4625L119.624 34.6735C119.566 34.8228 119.466 34.942 119.322 35.031C119.181 35.12 119.003 35.1645 118.787 35.1645Z" fill="#FCFEFF"/>
<path d="M121.85 32.8604C122.034 32.8604 122.195 32.8963 122.333 32.968C122.474 33.0369 122.583 33.1432 122.661 33.2867C122.741 33.4303 122.782 33.6112 122.782 33.8294V35.143H122.475V33.8595C122.475 33.6212 122.415 33.4418 122.294 33.3212C122.176 33.1977 122.009 33.136 121.793 33.136C121.632 33.136 121.491 33.169 121.371 33.2351C121.253 33.2982 121.161 33.3915 121.095 33.515C121.031 33.6356 121 33.782 121 33.9543V35.143H120.693V32.8819H120.987V33.5021L120.939 33.3858C121.011 33.2221 121.126 33.0944 121.284 33.0025C121.443 32.9077 121.631 32.8604 121.85 32.8604Z" fill="#FCFEFF"/>
<path d="M124.55 35.1645C124.325 35.1645 124.124 35.1157 123.946 35.0181C123.77 34.9176 123.632 34.7812 123.531 34.6089C123.431 34.4338 123.38 34.2342 123.38 34.0103C123.38 33.7835 123.431 33.5839 123.531 33.4116C123.632 33.2394 123.77 33.1044 123.946 33.0068C124.124 32.9092 124.325 32.8604 124.55 32.8604C124.742 32.8604 124.916 32.8977 125.072 32.9723C125.227 33.047 125.349 33.159 125.438 33.3083L125.21 33.4633C125.132 33.3485 125.036 33.2638 124.921 33.2092C124.806 33.1547 124.68 33.1274 124.545 33.1274C124.384 33.1274 124.239 33.1647 124.11 33.2394C123.98 33.3111 123.878 33.4131 123.803 33.5451C123.728 33.6772 123.691 33.8323 123.691 34.0103C123.691 34.1883 123.728 34.3433 123.803 34.4754C123.878 34.6075 123.98 34.7108 124.11 34.7855C124.239 34.8573 124.384 34.8932 124.545 34.8932C124.68 34.8932 124.806 34.8659 124.921 34.8113C125.036 34.7568 125.132 34.6735 125.21 34.5615L125.438 34.7166C125.349 34.863 125.227 34.975 125.072 35.0525C124.916 35.1272 124.742 35.1645 124.55 35.1645Z" fill="#FCFEFF"/>
<path d="M126.964 35.1645C126.729 35.1645 126.521 35.1157 126.343 35.0181C126.165 34.9176 126.025 34.7812 125.925 34.6089C125.824 34.4338 125.774 34.2342 125.774 34.0103C125.774 33.7863 125.821 33.5882 125.916 33.4159C126.014 33.2437 126.146 33.1087 126.313 33.0111C126.483 32.9106 126.673 32.8604 126.882 32.8604C127.095 32.8604 127.284 32.9092 127.448 33.0068C127.615 33.1015 127.745 33.2365 127.84 33.4116C127.935 33.5839 127.983 33.7835 127.983 34.0103C127.983 34.0246 127.981 34.0404 127.978 34.0576C127.978 34.072 127.978 34.0878 127.978 34.105H126.007V33.8768H127.814L127.694 33.9672C127.694 33.8035 127.658 33.6586 127.586 33.5322C127.517 33.403 127.422 33.3025 127.301 33.2307C127.18 33.159 127.041 33.1231 126.882 33.1231C126.727 33.1231 126.588 33.159 126.464 33.2307C126.34 33.3025 126.244 33.403 126.175 33.5322C126.106 33.6614 126.071 33.8093 126.071 33.9758V34.0232C126.071 34.1955 126.109 34.3476 126.184 34.4797C126.261 34.6089 126.368 34.7108 126.503 34.7855C126.641 34.8573 126.798 34.8932 126.973 34.8932C127.111 34.8932 127.239 34.8688 127.357 34.8199C127.478 34.7711 127.581 34.6965 127.668 34.596L127.84 34.7941C127.74 34.9147 127.613 35.0066 127.461 35.0697C127.311 35.1329 127.146 35.1645 126.964 35.1645Z" fill="#FCFEFF"/>
<path d="M131.437 32.8604C131.621 32.8604 131.78 32.8963 131.916 32.968C132.054 33.0369 132.16 33.1432 132.235 33.2867C132.313 33.4303 132.351 33.6112 132.351 33.8294V35.143H132.045V33.8595C132.045 33.6212 131.988 33.4418 131.872 33.3212C131.76 33.1977 131.601 33.136 131.394 33.136C131.238 33.136 131.103 33.169 130.988 33.2351C130.876 33.2982 130.788 33.3915 130.725 33.515C130.664 33.6356 130.634 33.782 130.634 33.9543V35.143H130.328V33.8595C130.328 33.6212 130.27 33.4418 130.155 33.3212C130.04 33.1977 129.879 33.136 129.672 33.136C129.52 33.136 129.386 33.169 129.271 33.2351C129.156 33.2982 129.066 33.3915 129.003 33.515C128.943 33.6356 128.913 33.782 128.913 33.9543V35.143H128.606V32.8819H128.9V33.4935L128.852 33.3858C128.921 33.2221 129.032 33.0944 129.184 33.0025C129.34 32.9077 129.522 32.8604 129.732 32.8604C129.954 32.8604 130.142 32.9164 130.298 33.0283C130.453 33.1374 130.554 33.3025 130.6 33.5236L130.479 33.4762C130.545 33.2925 130.661 33.1446 130.828 33.0326C130.998 32.9178 131.201 32.8604 131.437 32.8604Z" fill="#FCFEFF"/>
<path d="M134.144 35.1645C133.908 35.1645 133.701 35.1157 133.523 35.0181C133.345 34.9176 133.205 34.7812 133.104 34.6089C133.004 34.4338 132.953 34.2342 132.953 34.0103C132.953 33.7863 133.001 33.5882 133.096 33.4159C133.194 33.2437 133.326 33.1087 133.493 33.0111C133.663 32.9106 133.852 32.8604 134.062 32.8604C134.275 32.8604 134.464 32.9092 134.628 33.0068C134.794 33.1015 134.925 33.2365 135.02 33.4116C135.115 33.5839 135.163 33.7835 135.163 34.0103C135.163 34.0246 135.161 34.0404 135.158 34.0576C135.158 34.072 135.158 34.0878 135.158 34.105H133.186V33.8768H134.994L134.874 33.9672C134.874 33.8035 134.838 33.6586 134.766 33.5322C134.697 33.403 134.602 33.3025 134.481 33.2307C134.36 33.159 134.221 33.1231 134.062 33.1231C133.907 33.1231 133.768 33.159 133.644 33.2307C133.52 33.3025 133.424 33.403 133.355 33.5322C133.286 33.6614 133.251 33.8093 133.251 33.9758V34.0232C133.251 34.1955 133.289 34.3476 133.363 34.4797C133.441 34.6089 133.547 34.7108 133.683 34.7855C133.821 34.8573 133.977 34.8932 134.153 34.8932C134.291 34.8932 134.419 34.8688 134.537 34.8199C134.658 34.7711 134.761 34.6965 134.848 34.596L135.02 34.7941C134.92 34.9147 134.793 35.0066 134.641 35.0697C134.491 35.1329 134.326 35.1645 134.144 35.1645Z" fill="#FCFEFF"/>
<path d="M136.942 32.8604C137.127 32.8604 137.288 32.8963 137.426 32.968C137.567 33.0369 137.676 33.1432 137.754 33.2867C137.834 33.4303 137.874 33.6112 137.874 33.8294V35.143H137.568V33.8595C137.568 33.6212 137.508 33.4418 137.387 33.3212C137.269 33.1977 137.102 33.136 136.886 33.136C136.725 33.136 136.584 33.169 136.464 33.2351C136.346 33.2982 136.254 33.3915 136.187 33.515C136.124 33.6356 136.092 33.782 136.092 33.9543V35.143H135.786V32.8819H136.08V33.5021L136.032 33.3858C136.104 33.2221 136.219 33.0944 136.377 33.0025C136.535 32.9077 136.724 32.8604 136.942 32.8604Z" fill="#FCFEFF"/>
<path d="M139.418 35.1645C139.205 35.1645 139.041 35.1071 138.926 34.9922C138.811 34.8774 138.754 34.7151 138.754 34.5056V32.3823H139.06V34.4883C139.06 34.6204 139.093 34.7223 139.159 34.7941C139.228 34.8659 139.326 34.9018 139.453 34.9018C139.588 34.9018 139.7 34.863 139.789 34.7855L139.897 35.0051C139.837 35.0597 139.763 35.0999 139.677 35.1257C139.594 35.1516 139.507 35.1645 139.418 35.1645ZM138.348 33.136V32.8819H139.75V33.136H138.348Z" fill="#FCFEFF"/>
<path d="M141.933 33.5882H143.53V33.8638H141.933V33.5882ZM141.968 35.143H141.649V32.1282H143.72V32.4038H141.968V35.143Z" fill="#FCFEFF"/>
<path d="M145.641 35.143V34.6434L145.628 34.5615V33.726C145.628 33.5337 145.574 33.3858 145.464 33.2824C145.358 33.1791 145.198 33.1274 144.985 33.1274C144.839 33.1274 144.699 33.1518 144.567 33.2006C144.434 33.2494 144.322 33.314 144.23 33.3944L144.092 33.1661C144.207 33.0685 144.345 32.9939 144.506 32.9422C144.667 32.8876 144.837 32.8604 145.016 32.8604C145.309 32.8604 145.535 32.9336 145.693 33.08C145.854 33.2236 145.935 33.4432 145.935 33.7389V35.143H145.641ZM144.86 35.1645C144.69 35.1645 144.542 35.1372 144.416 35.0827C144.292 35.0252 144.197 34.9477 144.131 34.8501C144.065 34.7496 144.032 34.6348 144.032 34.5056C144.032 34.3878 144.059 34.2816 144.114 34.1868C144.171 34.0892 144.263 34.0117 144.39 33.9543C144.519 33.894 144.692 33.8638 144.908 33.8638H145.689V34.0921H144.916C144.698 34.0921 144.545 34.1309 144.459 34.2084C144.376 34.2859 144.334 34.3821 144.334 34.4969C144.334 34.6261 144.384 34.7295 144.485 34.807C144.585 34.8845 144.726 34.9233 144.908 34.9233C145.08 34.9233 145.228 34.8845 145.352 34.807C145.479 34.7266 145.571 34.6118 145.628 34.4625L145.697 34.6735C145.64 34.8228 145.539 34.942 145.395 35.031C145.254 35.12 145.076 35.1645 144.86 35.1645Z" fill="#FCFEFF"/>
<path d="M147.707 35.1645C147.483 35.1645 147.281 35.1157 147.103 35.0181C146.928 34.9176 146.79 34.7812 146.689 34.6089C146.588 34.4338 146.538 34.2342 146.538 34.0103C146.538 33.7835 146.588 33.5839 146.689 33.4116C146.79 33.2394 146.928 33.1044 147.103 33.0068C147.281 32.9092 147.483 32.8604 147.707 32.8604C147.9 32.8604 148.074 32.8977 148.229 32.9723C148.385 33.047 148.507 33.159 148.596 33.3083L148.367 33.4633C148.29 33.3485 148.193 33.2638 148.078 33.2092C147.963 33.1547 147.838 33.1274 147.703 33.1274C147.542 33.1274 147.397 33.1647 147.267 33.2394C147.138 33.3111 147.036 33.4131 146.961 33.5451C146.886 33.6772 146.849 33.8323 146.849 34.0103C146.849 34.1883 146.886 34.3433 146.961 34.4754C147.036 34.6075 147.138 34.7108 147.267 34.7855C147.397 34.8573 147.542 34.8932 147.703 34.8932C147.838 34.8932 147.963 34.8659 148.078 34.8113C148.193 34.7568 148.29 34.6735 148.367 34.5615L148.596 34.7166C148.507 34.863 148.385 34.975 148.229 35.0525C148.074 35.1272 147.9 35.1645 147.707 35.1645Z" fill="#FCFEFF"/>
<path d="M149.164 35.143V32.8819H149.47V35.143H149.164ZM149.319 32.3823C149.256 32.3823 149.203 32.3608 149.16 32.3177C149.117 32.2746 149.095 32.223 149.095 32.1627C149.095 32.1024 149.117 32.0521 149.16 32.0119C149.203 31.9689 149.256 31.9473 149.319 31.9473C149.383 31.9473 149.436 31.9674 149.479 32.0076C149.522 32.0478 149.544 32.0981 149.544 32.1584C149.544 32.2215 149.522 32.2746 149.479 32.3177C149.439 32.3608 149.386 32.3823 149.319 32.3823Z" fill="#FCFEFF"/>
<path d="M150.323 35.143V31.9473H150.629V35.143H150.323Z" fill="#FCFEFF"/>
<path d="M151.482 35.143V32.8819H151.788V35.143H151.482ZM151.637 32.3823C151.574 32.3823 151.52 32.3608 151.477 32.3177C151.434 32.2746 151.412 32.223 151.412 32.1627C151.412 32.1024 151.434 32.0521 151.477 32.0119C151.52 31.9689 151.574 31.9473 151.637 31.9473C151.7 31.9473 151.753 31.9674 151.796 32.0076C151.84 32.0478 151.861 32.0981 151.861 32.1584C151.861 32.2215 151.84 32.2746 151.796 32.3177C151.756 32.3608 151.703 32.3823 151.637 32.3823Z" fill="#FCFEFF"/>
<path d="M153.356 35.1645C153.144 35.1645 152.98 35.1071 152.865 34.9922C152.75 34.8774 152.692 34.7151 152.692 34.5056V32.3823H152.998V34.4883C152.998 34.6204 153.031 34.7223 153.098 34.7941C153.167 34.8659 153.264 34.9018 153.391 34.9018C153.526 34.9018 153.638 34.863 153.728 34.7855L153.835 35.0051C153.775 35.0597 153.702 35.0999 153.615 35.1257C153.532 35.1516 153.446 35.1645 153.356 35.1645ZM152.286 33.136V32.8819H153.689V33.136H152.286Z" fill="#FCFEFF"/>
<path d="M154.368 36C154.262 36 154.16 35.9828 154.062 35.9483C153.967 35.9139 153.885 35.8622 153.816 35.7933L153.958 35.565C154.016 35.6196 154.078 35.6612 154.144 35.6899C154.213 35.7215 154.289 35.7373 154.373 35.7373C154.473 35.7373 154.559 35.7086 154.631 35.6511C154.706 35.5966 154.777 35.499 154.843 35.3583L154.99 35.0267L155.024 34.9793L155.956 32.8819H156.258L155.123 35.4143C155.06 35.5607 154.99 35.677 154.912 35.7631C154.837 35.8493 154.755 35.9096 154.666 35.944C154.577 35.9813 154.478 36 154.368 36ZM154.972 35.2076L153.928 32.8819H154.247L155.171 34.9578L154.972 35.2076Z" fill="#FCFEFF"/>
<path d="M2.62112 16.6655C6.19011 16.9742 9.39597 18.5034 11.789 20.8184C14.182 23.1334 15.7628 26.2348 16.0818 29.6874C12.5128 29.3788 9.30719 27.8495 6.91419 25.5345C4.52118 23.2195 2.94017 20.1184 2.62112 16.6655ZM23.0554 20.8184C25.4484 18.5034 28.6543 16.9742 32.2233 16.6655C31.9042 20.1184 30.3234 23.2195 27.9304 25.5345C25.5372 27.8495 22.3316 29.3788 18.7626 29.6874C19.0816 26.2348 20.6624 23.1336 23.0554 20.8184ZM13.5998 19.0664C10.4471 16.0165 6.0916 14.1299 1.28075 14.1299H0V15.3689C0 20.0227 1.95018 24.2364 5.10312 27.2863C7.97352 30.0633 11.8413 31.8756 16.1415 32.1779V34.6323H18.7027V32.1779C23.0031 31.8756 26.8707 30.0633 29.7413 27.2863C32.894 24.2364 34.8442 20.0229 34.8442 15.3689V14.1299H33.5634C28.7526 14.1299 24.3971 16.0165 21.2444 19.0664C19.6143 20.6433 18.3059 22.5312 17.4222 24.6301C16.5383 22.5312 15.2299 20.6433 13.5998 19.0664ZM16.1285 16.3728C15.6377 16.1289 15.2534 15.7101 15.1309 15.1166C15.0728 14.8351 15.0424 14.6531 15.0098 14.4575C14.8156 13.2896 14.5676 11.799 13.7266 10.9677C13.2661 10.5125 12.8937 9.96797 12.6381 9.36195C12.3932 8.78121 12.2582 8.14343 12.2582 7.47326C12.2582 6.09363 12.8362 4.84481 13.7705 3.9408C14.705 3.03678 15.9959 2.47778 17.4222 2.47778C18.8481 2.47778 20.1394 3.03699 21.0737 3.9408C22.008 4.84481 22.586 6.09363 22.586 7.47326C22.586 8.14322 22.4508 8.78101 22.2061 9.36174C21.9505 9.96776 21.5783 10.5123 21.1176 10.9675C20.2766 11.799 20.0288 13.289 19.8344 14.4571C19.802 14.6533 19.7716 14.8358 19.7135 15.1166C19.5908 15.7099 19.2067 16.1289 18.7159 16.3725C18.3364 16.561 17.8849 16.6555 17.4222 16.6555V16.6603C16.9658 16.6603 16.5145 16.5644 16.1285 16.3728ZM19.8766 18.5699C21.0301 17.9969 21.9339 17.007 22.2248 15.6006C22.2516 15.4712 22.3018 15.1695 22.3558 14.8445C22.4929 14.0199 22.6681 12.9678 22.9386 12.7005C23.6359 12.0113 24.1966 11.1942 24.5772 10.2912C24.9447 9.41983 25.1475 8.46797 25.1475 7.47347C25.1475 5.40987 24.2826 3.54145 22.8848 2.18898C21.4867 0.836724 19.5553 0 17.4224 0C15.2893 0 13.3579 0.836724 11.9598 2.18898C10.5618 3.54145 9.6971 5.40987 9.6971 7.47347C9.6971 8.46817 9.89993 9.41983 10.2674 10.2912C10.648 11.194 11.2085 12.0111 11.9061 12.7003C12.1769 12.968 12.3519 14.0201 12.4889 14.8447C12.5431 15.1701 12.5934 15.4721 12.6198 15.6006C12.9107 17.0072 13.8143 17.9969 14.9683 18.5701C15.7178 18.9425 16.573 19.1289 17.4226 19.1287V19.1335C18.266 19.1335 19.1205 18.9454 19.8766 18.5699Z" fill="url(#paint0_linear_5463_2418)"/>
<defs>
<linearGradient id="paint0_linear_5463_2418" x1="25.3065" y1="13.1657" x2="10.6007" y2="28.3677" gradientUnits="userSpaceOnUse">
<stop stop-color="#80BF4C"/>
<stop offset="1" stop-color="#1AA347"/>
</linearGradient>
</defs>
</svg>
