<svg width="16" height="16" viewBox="0 0 16 16" fill="none" xmlns="http://www.w3.org/2000/svg">
<path opacity="0.5" d="M9.99902 4.66634C9.99095 3.21632 9.92665 2.43105 9.4144 1.91879C8.82859 1.33301 7.88579 1.33301 6.00019 1.33301H5.33352C3.44792 1.33301 2.50506 1.33301 1.91932 1.91879C1.33352 2.50458 1.33352 3.44739 1.33352 5.33301V10.6663C1.33352 12.5519 1.33352 13.4947 1.91932 14.0805C2.50506 14.6663 3.44792 14.6663 5.33352 14.6663H6.00019C7.88579 14.6663 8.82859 14.6663 9.4144 14.0805C9.92665 13.5683 9.99095 12.783 9.99902 11.333" stroke="#282E34" stroke-opacity="0.5" stroke-width="1.2" stroke-linecap="round"/>
<path opacity="0.5" d="M6.00033 8H14.667M14.667 8L12.3337 6M14.667 8L12.3337 10" stroke="#282E34" stroke-opacity="0.5" stroke-width="1.2" stroke-linecap="round" stroke-linejoin="round"/>
</svg>
