<svg width="32" height="32" viewBox="0 0 32 32" fill="none" xmlns="http://www.w3.org/2000/svg">
<rect width="32" height="32" rx="16" fill="#B6D4EC"/>
<path d="M10.5583 13.5003C12.1691 13.5003 13.4749 12.1945 13.4749 10.5837C13.4749 8.97283 12.1691 7.66699 10.5583 7.66699C8.94744 7.66699 7.6416 8.97283 7.6416 10.5837C7.6416 12.1945 8.94744 13.5003 10.5583 13.5003Z" stroke="#0E4B81" stroke-width="1.25"/>
<path d="M20.1413 18.5H22.6413C23.5579 18.5 24.3079 19.25 24.3079 20.1667V22.6667C24.3079 23.5833 23.5579 24.3333 22.6413 24.3333H20.1413C19.2246 24.3333 18.4746 23.5833 18.4746 22.6667V20.1667C18.4746 19.25 19.2246 18.5 20.1413 18.5Z" stroke="#0E4B81" stroke-width="1.25"/>
<path d="M16.0004 10.167H18.2337C19.7754 10.167 20.4921 12.0753 19.3337 13.092L12.6754 18.917C11.5171 19.9253 12.2337 21.8337 13.7671 21.8337H16.0004" stroke="#0E4B81" stroke-width="1.25" stroke-linecap="round" stroke-linejoin="round"/>
<path d="M10.5721 10.5837H10.5817" stroke="#0E4B81" stroke-width="1.66667" stroke-linecap="round" stroke-linejoin="round"/>
<path d="M21.4051 21.4167H21.4147" stroke="#0E4B81" stroke-width="1.66667" stroke-linecap="round" stroke-linejoin="round"/>
</svg>
